<svg xmlns="http://www.w3.org/2000/svg" width="1024" height="1024" viewBox="0 0 1024 1024">
  <!-- Owlat desktop app icon (master source).
       Regenerate all platform icons from this file:
         rsvg-convert -w 1024 -h 1024 icon.svg -o /tmp/owlat-icon.png
         bun tauri icon /tmp/owlat-icon.png   (from apps/desktop)
       Keep tray.png transparent — it is a macOS template icon. -->
  <defs>
    <linearGradient id="plate" x1="0" y1="0" x2="0" y2="1">
      <stop offset="0" stop-color="#221c18"/>
      <stop offset="1" stop-color="#100f0e"/>
    </linearGradient>
    <radialGradient id="glow" cx="0.5" cy="0.42" r="0.6">
      <stop offset="0" stop-color="#c4785a" stop-opacity="0.22"/>
      <stop offset="1" stop-color="#c4785a" stop-opacity="0"/>
    </radialGradient>
    <linearGradient id="owl" x1="0" y1="0" x2="0" y2="1">
      <stop offset="0" stop-color="#e89878"/>
      <stop offset="1" stop-color="#c4785a"/>
    </linearGradient>
    <clipPath id="plateClip">
      <rect x="100" y="100" width="824" height="824" rx="185"/>
    </clipPath>
  </defs>
  <g clip-path="url(#plateClip)">
    <rect x="100" y="100" width="824" height="824" fill="url(#plate)"/>
    <rect x="100" y="100" width="824" height="824" fill="url(#glow)"/>
  </g>
  <rect x="101.5" y="101.5" width="821" height="821" rx="183.5" fill="none" stroke="rgba(255,255,255,0.06)" stroke-width="3"/>
  <g transform="translate(195.8 220.6) scale(0.62)">
    <path fill="url(#owl)" d="M626.922 872.737c72.812 0 128.59-100.82 154.99-153.92 27.5-55.3 35.6-112.8 23.5-166.8-6.5-29-19.7-56.7-37.8-79.1l-6.7-8.3 5-7.7c10.5-16 19-36.5 23.3-56.5 3.2-14.8 3.2-45.6 0-60.2-3-13.9-6.4-23.9-12.7-37-5.1-10.9-14.9-26.8-18-29.4-2.2-1.8-1.9-3.5 1.3-5.6 4.3-2.8 16-14.4 20.6-20.4 9.4-12.2 15.9-25.9 20.3-42.9 4.5-17.4 4.3-49.1-.4-54.3-2.7-3-5.6-2.1-14.4 4.8-24.5 19.4-49.7 33.9-79.7 46-10.768 4.37-21.834 8.065-33 11.274-4.533 1.303-9.83 2.715-14.475 3.716-2.415.52-6.817 1.408-9.525 1.41-.707 0-1.4-.205-2.088-.368-3.965-.94-10.904-3.28-13.612-4.233-26.2-9.2-50.4-15.1-78.5-19-15.9-2.3-65.9-2.6-82-.6-28.2 3.6-51.6 9-79.1 18.3-4.425 1.46-8.886 2.812-13.35 4.15-.564.17-5.837 1.696-7.35 1.75-1.433.051-5.828-.866-6.738-1.078-3.707-.866-7.41-1.756-11.087-2.747-7.548-2.034-17.17-4.91-24.575-7.575-33.7-12.2-64.6-29-90.3-49.1-10.6-8.3-13-9.3-16.2-7-3.182 2.273-3.746 6.997-4.136 10.542a57 57 0 0 0-.322 3.985c-.415 10.65-.486 21.435 1.158 31.998 1.04 6.674 2.826 13.188 5 19.575 6.9 20.2 21.9 41 37.3 51.4 3.7 2.5 4.6 4.3 2.7 5.5-2 1.2-12.8 18.2-17.3 27.1-5.7 11.4-11.1 26.7-13.9 39.8-3.1 14.5-3.1 43.5 0 58.3 4.5 20.9 12.8 41.1 23.5 57.6l5.4 8.3-4.4 4.9c-6.9 7.7-19.7 27.6-25.8 39.9-16 32.7-23 72.8-19.5 112.6 4.8 54.3 27 107.4 64.6 154.5 11.2 14 38.8 41.6 52.4 52.5 12.3 9.7 30.7 22.1 42.3 28.4 4.076 2.19 11.727 5.824 15.65 7.65 2.553 1.188 5.11 2.37 7.694 3.488 1.233.533 4.584 2.52 3.756 1.462-4.082-5.217-9.176-9.556-13.8-14.3-41-41.3-64.9-79.6-77.5-124.2-7.5-26.7-9.6-43.5-8.8-72 1.5-53.4 13.9-90.7 42.2-127 11.7-15 33.152-33.098 43.973-39.65 2.703-1.636 13.226-5.464 13.195-9.169-.024-2.824-10.677-3.73-18.29-4.477-20.608-2.018-71.378-18.604-93.078-51.904-7-10.7-10.5-19.7-13.2-33.3-4.3-22.8-3.8-38.4 2.1-57 9.4-29.7 30.8-55 58.3-68.7l6-3 8 1.7c17.9 4 41.2 12.7 61.5 23.1 31.2 15.9 52 34.9 74.1 67.6 1.912 2.845 3.744 5.744 5.562 8.65a45 45 0 0 1 1.708 2.966c.25.475.691.95.63 1.484-.086.752-.65 1.368-1.033 2.022a115 115 0 0 1-2.805 4.553c-3.02 4.664-6.05 9.322-9.162 13.925-13.8 20.3-14.4 22-11.4 28 2.7 5.1 33.4 50.9 36.2 53.9 4.5 4.9 11 4.6 15.4-.6.9-1.2 9.5-13.8 19-28 3.084-4.626 6.178-9.246 9.2-13.912a319 319 0 0 0 5.225-8.363c.766-1.267 1.81-3.254 2.338-4.725 1.217-3.39.08-6.705-1.663-9.687a178 178 0 0 0-3.875-6.349c-2.195-3.419-4.462-6.79-6.725-10.164-2.89-4.335-6.217-9.457-8.975-13.937-.932-1.514-1.858-3.032-2.725-4.583-.375-.672-.884-1.32-1-2.08-.07-.465.28-.902.483-1.326.404-.839.853-1.657 1.336-2.454 1.481-2.442 2.983-4.873 4.556-7.257a274 274 0 0 1 5.944-8.665c1.937-2.707 3.908-5.393 5.981-7.998 20.5-26.1 37.4-39.9 66.8-54.5 14.812-7.372 30.453-13.414 46.254-18.297 5.616-1.735 8.907-2.623 14.498-3.775 2.088-.43 4.364-.775 6.472-.26 2.95.717 5.791 2.14 8.463 3.532 4.931 2.57 9.66 5.573 14.113 8.9 22.3 16.8 37.6 40.7 43.1 67.3 1.9 9 2.1 12.7 1.7 26-1 28-6.5 44.7-21.1 64.1-18.3 24.1-42.2 38.6-75.5 45.5a239 239 0 0 0-7.434 1.684c-1.774.431-4.02.985-5.474 2.205-1.922 1.612-1.379 4.493.32 5.986a32 32 0 0 0 2.243 1.822c1.153.842 2.347 1.626 3.545 2.403 51.474 32.978 88.815 111.133 73.842 172.68-6.006 24.685-18.732 44.497-25.223 55.532-36.05 61.291-55.18 86.68-120.583 86.68-30.874 0-25.974.302-64.336.302s-90.26-28.708-115.4-97.794c-11.455-31.479-7.2-56.7.1-79.6 13.1-41.8 43.1-74.2 81.1-87.9 14.8-5.3 25.9-7 47.2-7 21.3-.1 27.8.7 43.5 5.5 34.6 10.7 57.1 33.9 66.1 68.4 5.2 20 4.3 49.7-2.1 68.5-2.837 8.352-6.917 16.448-12.645 23.203-3.274 3.861-7.156 7.344-11.697 9.647-3.106 1.575-6.466 2.51-9.958 2.55-2.767.032-5.409-.225-7.5-2.2-3.3-3.4-2.8-11.5 2.6-41.2 2.726-14.878 7.295-39.919 9.95-56.062a657 657 0 0 0 2.116-13.955c.28-1.963.604-4.963.634-7.083.026-1.865-.009-3.156-.439-4.93-.535-2.213-3.02-3.157-5.015-3.496a54 54 0 0 0-3.7-.518c-1.689-.168-3.383-.264-5.077-.358-2.222-.124-4.446-.21-6.669-.298-18.5-.7-19.5-.4-20.7 7.3l-.6 4.3-5.2-3.9c-18.3-13.9-47.4-17-70.6-7.7-28 11.3-49.7 38.2-57.1 70.5-2.9 12.9-3.7 35.3-1.5 46.2 4.1 20.3 15.9 35.8 33.7 44.3 12.3 5.9 18 7.2 31.9 7.1 22.6-.1 39.3-7.9 51-23.6l2.7-3.7 1.6 5.7c3.3 11.8 12.7 19.6 25.5 21.3 14.5 1.8 33.4-2.7 48.5-11.8 10.9-6.5 25.7-21.1 33.3-32.8 19-29.4 25.5-68.3 17.8-107-3.4-17-12-36.7-22.1-50.6-7-9.8-20.4-22.9-29.8-29.1-31.4-20.8-76.3-30.9-118.5-26.7-28.1 2.8-57.3 12.7-79 26.7-38.3 24.8-65.6 65.1-75.6 111.7-7.438 34.926-5.134 70.35 8.07 102.951 13.6 33.577 38.273 67.453 49.954 81.352 16.85 20.048 54.583 54.872 103.576 56.391zm-90.31-248.42c5.726 2.766 10.577 7.646 12.871 13.625.85 2.213 1.287 4.495 1.612 6.845.59 4.257.622 8.666.377 12.951-.25 4.368-.537 8.842-1.76 13.078-.566 1.96-1.167 3.912-1.87 5.827-5.197 14.165-14.952 28.306-28.92 34.966a44 44 0 0 1-10.108 3.377c-6.518 1.328-13.53 1.207-19.602-1.77-2.139-1.049-4.178-2.364-5.947-3.967-3.442-3.122-5.692-7.29-7.653-11.433-1.046-2.21-2.223-4.527-2.588-6.987-.64-4.338-.544-8.83-.283-13.183.827-13.766 6.017-26.937 14.51-37.778 3.247-4.146 6.955-8.205 11.263-11.276 7.367-5.252 16.724-7.748 25.707-7.394 4.25.167 8.568 1.263 12.391 3.118m-166.6-316c6.746-1.51 13.764-1.579 20.591-.614 8.322 1.177 16.595 3.803 23.75 8.277 3.587 2.243 6.827 4.99 9.857 7.937 5.715 5.557 10.618 11.961 13.848 19.281 7.931 17.978 6.11 39.266-4.154 55.93-4.105 6.666-9.505 12.5-15.866 17.068-6.007 4.314-12.926 7.628-20.157 9.265a72.6 72.6 0 0 1-17.738 1.765c-4.119-.103-8.12-.383-12.13-1.31-7.714-1.784-14.794-5.448-21.17-10.086-5.356-3.896-10.013-8.922-13.772-14.355-4.518-6.53-8.045-14.083-9.56-21.912-2.17-11.22-1.01-23.064 3.218-33.668 1.318-3.307 2.744-6.623 4.658-9.64 2.682-4.232 5.931-8.056 9.525-11.539 8.13-7.878 17.99-13.875 29.1-16.4m258.5 0c40.8-9 79.3 27.8 72.1 69.1-4 23.2-20.2 41.2-43.1 48-9.6 2.8-24.9 2.4-35-1-14.929-5.035-27.767-15.49-35.023-29.566a58.3 58.3 0 0 1-4.816-12.866c-1.802-7.389-2.129-15.28-1.214-22.823.764-6.302 2.823-12.147 5.553-17.845 8.1-16.7 23.6-29 41.5-33"/>
  </g>
</svg>
